<svg xmlns="http://www.w3.org/2000/svg" viewBox="0 0 228.19 67.4"><defs><style>.cls-1{fill:#b62025;stroke:#b62025;stroke-miterlimit:10;stroke-width:0.2px;}</style></defs><g id="Layer_2" data-name="Layer 2"><g id="carr_right"><path class="cls-1" d="M84.05,30.28c-2.54,3-7.27,6.48-11.45,6.48-1.76,0-2.6-.84-2.6-2.18,0-1.69,2.24-5.15,3.57-5.15.36,0,.73.19.73.55,0,.6-3.09,3.45-3.15,5.33,0,.55.3,1,1.21,1,4.06,0,8.66-3.27,11.33-6.36A.38.38,0,0,1,84.05,30.28Zm-8.18-2.84a1.7,1.7,0,0,1,1.58-1.34c.54,0,.91.3.91.49,0,.48-1.34,1.15-2.06,1.15C76.12,27.74,75.87,27.68,75.87,27.44Z"/><path class="cls-1" d="M98.11,30.28l-.55.55c-1.88,1.94-5.45,5.57-7.81,5.57-2.73,0-1.52-4.18-3-4.18-1.15,0-4.67,3.7-5.94,5l-.24.24a.71.71,0,0,1-.67.42.8.8,0,0,1-.79-.78c0-1,3.64-7.51,5.15-7.51.43,0,.73.18.73.48a1,1,0,0,1-.24.61A31,31,0,0,0,81.2,36.1c1.76-1.88,4.73-4.85,6.24-4.85,2.37,0,1,4.67,2.79,4.67s6.36-4.79,7.51-6A.4.4,0,0,1,98.11,30.28Z"/><path class="cls-1" d="M132.52,2.9c0,3.88-8,10.36-11.88,12.72a27.77,27.77,0,0,1-13,4.61A175.91,175.91,0,0,0,93.56,37.49c2.37-2.6,5.64-5.69,8.12-5.69,2.79,0,1,5,3.7,5,1.93,0,5.87-3.69,8.05-5.87l.79-.79c.06-.06.12-.18.24-.18a.4.4,0,0,1,.31.36c-2.06,2.12-7.33,7.33-10.3,7.33s-2.18-5.21-3.33-5.21c-2.55,0-8,6.12-9.45,8.12-.25.49-.43.73-.79.73a.86.86,0,0,1-.85-.79.76.76,0,0,1,.06-.36c1.88-3.7,8.18-11.88,15.33-19.81C99.92,20.29,93,18.71,93,13.74c0-.12.54-3.75,2.06-3.75a.34.34,0,0,1,.36.3c0,.12-.12.3-.36.48a3.12,3.12,0,0,0-1.64,2.91c0,4.61,6.48,6.12,11.63,6.12h.79C113.49,11.44,124,1,129.91,1,131.73,1,132.52,1.69,132.52,2.9Zm-.43,0c0-.79-.42-1.39-1.57-1.39-4.85,0-16,11.26-22.42,18.17,4.79-.36,8.36-2.06,12.3-4.42C123.37,13.5,132.09,6.66,132.09,2.9Z"/><path class="cls-1" d="M164.12,59.7a.22.22,0,0,1-.19.15c-7.76,0-13.24-4.66-13.24-12.94C150.69,29,172.51,15,172.51,7c0-1.26-.78-1.64-1.8-1.64-1.69,0-4.26,1.35-5,1.79-13.91,8.05-34.27,27.39-43.43,40.76-.14,0-.14.1-.14.1s-.15-.1-.2-.14c1.75-15.37,27.82-34.76,29.23-46.1a.21.21,0,0,1,.2-.19.24.24,0,0,1,.19.24c-1.65,13.33-26.61,32.67-29.13,45.22,9.4-13.38,29.37-32.28,43.14-40.23A13.67,13.67,0,0,1,171.25,5a2.11,2.11,0,0,1,2.37,2.33c0,8.24-22.29,22.44-22.29,40.27,0,7.91,5.47,11.93,12.6,11.93A.21.21,0,0,1,164.12,59.7Z"/><path class="cls-1" d="M177.75,30.22a26.9,26.9,0,0,1-6.66,5.33c-2.79,1.64-5.88,3.09-9.15,4.79-6.12,8.06-21.08,27-27,27-.91,0-1.52-.37-1.52-1.28s.91-2.9,2.61-5.33c6.18-8.72,14.24-14.41,23.26-19.38l6-8c-1.51,1.21-3.94,2.85-5.21,2.85-.61,0-1-.3-1-1.15,0-1.94,2.24-5.58,5.27-5.58a2.22,2.22,0,0,1,2.42,1.82c.31-.42.49-1,1.34-1,.36,0,.72.12.72.49a1.66,1.66,0,0,1-.36.78c-2.06,2.79-4,5.46-5.88,7.94,6.12-3.33,11.21-5.27,14.79-9.57A.39.39,0,0,1,177.75,30.22Zm-19.21,12c-8.6,4.84-16.23,10.42-22.17,18.78-1.57,2.24-2.48,4-2.48,5a.69.69,0,0,0,.67.73,4.27,4.27,0,0,0,1.75-.66C142.73,62.39,153.09,49.24,158.54,42.22Zm1.82-6.55c1.21,0,5.7-3.57,6-3.81,0-1-.36-1.4-1-1.4-2.36,0-5.27,3.58-5.33,4.85C160.06,35.55,160.12,35.67,160.36,35.67Z"/><path class="cls-1" d="M172.84,40.16a2,2,0,0,1,1.64-1.7A.49.49,0,0,1,175,39a1.93,1.93,0,0,1-1.63,1.63C173,40.58,172.84,40.46,172.84,40.16Zm15.81-9.88c-2.36,2.79-4.84,4.36-7.63,4.36a6.83,6.83,0,0,1-2.18-.3,4.91,4.91,0,0,1-3,1.64c-.73,0-1.27-.43-1.27-1.4a5.3,5.3,0,0,1,1-2.66c-.12-.06-.12-.49-.12-.67a3.17,3.17,0,0,1,3.27-3,2,2,0,0,1,2.24,2A6.06,6.06,0,0,1,179.2,34a6.2,6.2,0,0,0,1.76.24c2.67,0,5-1.58,7.39-4.3A.34.34,0,0,1,188.65,30.28Zm-10.3,3.88a3.93,3.93,0,0,1-1.93-1,3.94,3.94,0,0,0-.79,1.94c0,.3.12.42.36.42a2.89,2.89,0,0,0,1.09-.42A8.4,8.4,0,0,0,178.35,34.16Zm-2.42-2.79c.55-.66,1.15-1.69,2-1.69.42,0,1,.18,1,.54s-1.27,1.33-2.18,2.61a4.85,4.85,0,0,0,2,1,5.56,5.56,0,0,0,1.82-3.46c0-1.09-.73-1.57-1.82-1.57A2.63,2.63,0,0,0,175.93,31.37Z"/><path class="cls-1" d="M225.67,29c1.39,0,2.42.36,2.42,1.09a.93.93,0,0,1-.91.91c-.42,0-1.45-1-3.33-1-7.63,0-26.59,8.84-34,8.84-2.43,0-4.55-1.21-4.55-4s2.67-6.24,5.57-6.24a1.66,1.66,0,0,1,1.76,1.63c0,.79-.42,1-.66,1a.14.14,0,0,1-.13-.12c0-.24.31-.55.31-.91s-.24-1-.79-1c-2,0-4.67,3.82-4.67,6.06a2.81,2.81,0,0,0,3.09,3C195.92,38.34,218.1,29,225.67,29Z"/><path class="cls-1" d="M69.82,59.51c-7,0-11.34-4.65-11.34-11.63,0-17.16,23.36-35.29,23.36-41.74,0-1.35-.63-2.62-2.23-2.62a6.61,6.61,0,0,0-2.67.78C65.8,9.63,49.27,28.05,42.09,38.91c3.11-11.93,21-28.7,21-34.08a1.55,1.55,0,0,0-1.7-1.69c-5.28,0-20,12.79-23.65,16.28a223.07,223.07,0,0,0-24,27.68C16.16,34.55,42,15.23,42.87,1.83V1.62c0-.73-1-1.1-2.42-1.1C32.88.52,10.7,9.86,4.58,9.86a2.82,2.82,0,0,1-3.09-3C1.49,4.58,4.16.77,6.16.77c.54,0,.79.48.79,1s-.31.66-.31.91a.13.13,0,0,0,.12.12c.25,0,.67-.25.67-1A1.66,1.66,0,0,0,5.67.1C2.77.1.1,3.43.1,6.34s2.12,4,4.54,4c7.4,0,26.33-8.51,34-8.92a13.92,13.92,0,0,1,2.8,0,6.45,6.45,0,0,1,1.09.37s0,0,0,0c-1.4,11.29-27.34,30.63-29.23,46a.26.26,0,0,0,.2.24c0-.05.05,0,.14-.1A229.49,229.49,0,0,1,38.07,19.66c3.3-3.19,18.32-16.14,23.31-16.14.3,0,.68,0,.68.59-.19,6.73-17.88,21.81-20.55,35.77a.23.23,0,0,0,.2.24s0-.1.14-.1C48.64,29.31,65.7,10.07,77.09,4.64a6.27,6.27,0,0,1,2.52-.73c1.07,0,1.36.58,1.36,1.31-.2,6.93-23.17,24.19-23.17,42,0,7.31,4.6,12.6,12,12.6A.17.17,0,0,0,70,59.7.18.18,0,0,0,69.82,59.51Z"/></g></g></svg>