<svg xmlns="http://www.w3.org/2000/svg" viewBox="0 0 26.66 25.67"><defs><style>.cls-1{fill:none;stroke:#b62025;stroke-linecap:round;stroke-linejoin:round;stroke-width:0.4px;}</style></defs><g id="Layer_2" data-name="Layer 2"><g id="carr_right"><circle class="cls-1" cx="9.44" cy="15.37" r="8.84" transform="translate(-5.11 4.71) rotate(-22.22)"/><circle class="cls-1" cx="9.44" cy="15.37" r="5.94" transform="translate(-7.25 22.22) rotate(-80.74)"/><path class="cls-1" d="M.2,11.29a10.16,10.16,0,0,1,6-5.47"/><path class="cls-1" d="M18.32,20.18a10.09,10.09,0,0,1-8.88,5.29"/><path class="cls-1" d="M26.36,14.26c.44,1-.69,1.36-1.08.47-.45-1-2.85-6.52-2.85-6.52s-1.15-.36-1.82-2.35-.69-6.34-.09-5C20.58,1,25.85,13.09,26.36,14.26Z"/><path class="cls-1" d="M16.89,2.56c.22.52.64,1.49.74,1.7s-.29.47-.42.18l-.74-1.7a.44.44,0,1,0-.79.35c.16.35.62,1.42.74,1.7s-.32.4-.41.18-.52-1.18-.74-1.7a.44.44,0,1,0-.81.35L15.7,6.48a1,1,0,0,0,1.42.46s3.88,8.87,4.33,9.91c.19.45,1.3,0,1.1-.48L18.22,6.45s1.14-.42.72-1.39L17.7,2.21A.44.44,0,1,0,16.89,2.56Z"/><path class="cls-1" d="M24.74,19.17a1.17,1.17,0,0,0-1.34.41c-.06.09-.09.09-.08,0a1.17,1.17,0,0,0-2.26-.49c-.53,1.49,1.28,3.36,1.28,3.36s2.58-.31,3.1-1.8A1.15,1.15,0,0,0,24.74,19.17Z"/><path class="cls-1" d="M10.74.38a1.17,1.17,0,0,0-.49,1.31c0,.11,0,.14-.05.07A1.17,1.17,0,0,0,8.43,3.25c.86,1.32,3.44,1,3.44,1s1.33-2.24.48-3.57A1.17,1.17,0,0,0,10.74.38Z"/></g></g></svg>