<svg xmlns="http://www.w3.org/2000/svg" viewBox="0 0 209.21 64.96"><defs><style>.cls-1{fill:none;}.cls-2,.cls-3{fill:#b62025;stroke:#b62025;stroke-miterlimit:10;}.cls-2{stroke-width:0.21px;}.cls-3{stroke-width:0.2px;}</style></defs><g id="Layer_2" data-name="Layer 2"><g id="carr_right"><path class="cls-1" d="M14.24,51.16a89.8,89.8,0,0,0,6.86-11.5c-5.11,6-8.87,11.09-9,14.08C12.12,53.79,13.93,51.62,14.24,51.16Z"/><path class="cls-1" d="M25.48,2.89A13.87,13.87,0,0,0,17,.52C9.39.52.52,4.54.52,6.45c0,.57.83.93,3,.93A59,59,0,0,0,17.64,5.15"/><path class="cls-1" d="M14.24,51.16a89.8,89.8,0,0,0,6.86-11.5c-5.11,6-8.87,11.09-9,14.08C12.12,53.79,13.93,51.62,14.24,51.16Z"/><path class="cls-2" d="M49.72,1.09a.22.22,0,0,0-.21.2c0,5.47-14.59,20.37-25.63,33.37,3.25-7.58,5.57-15.73,5.57-22.59,0-4.07-1-6.75-2.78-8.66l-.73-.67C23.62.83,20.37.11,17,.11,8.82.11.11,4.28.11,6.5c.05.78,1.18,1.29,3.66,1.29a25.32,25.32,0,0,0,2.58-.15,26.56,26.56,0,0,0,3-.52c-2,.2-4,.26-5.85.26-2.16,0-3-.36-3-.93C.52,4.54,9.39.52,17,.52a13.87,13.87,0,0,1,8.46,2.37l.72.67C28.06,5.42,29,8.1,29,12.12c0,7.22-2.63,15.73-6.09,23.57C16.56,43.32,11.71,50,11.71,53.79c0,.26,0,.36.21.36.62,0,2.57-2.68,2.63-2.73a89.16,89.16,0,0,0,7.58-13C33.32,25.53,49.92,9.08,49.92,1.29A.22.22,0,0,0,49.72,1.09ZM14.24,51.16c-.31.46-2.12,2.63-2.12,2.58.11-3,3.87-8.1,9-14.08A89.8,89.8,0,0,1,14.24,51.16Z"/><path class="cls-2" d="M9.36,7.12a27.29,27.29,0,0,0,8.28-2C15.4,5.62,12.11,6.53,9.36,7.12Z"/><path class="cls-3" d="M51,35.16c-2.36,2.55-7.39,7.33-11.15,7.33a2,2,0,0,1-2.24-2.18,8.28,8.28,0,0,1,.55-2.84c-1.58,1.45-3.52,2.9-4.49,2.9a1.07,1.07,0,0,1-1.21-1.09c0-1.93,2.73-4.9,4.6-4.9a2.59,2.59,0,0,1,2,1.15c.37-.49.61-1.09,1.4-1.09a.61.61,0,0,1,.66.54c0,.55-2.42,4.06-2.42,6a1,1,0,0,0,1.15,1c3.45,0,8.6-4.79,10.84-7.21C50.93,34.8,51,35,51,35.16ZM37.6,35c-1,0-4.36,3.27-4.36,4.49a.32.32,0,0,0,.36.36c1,0,3.64-2.18,5.27-3.88C38.63,35.71,38,35,37.6,35Zm-.24-4.66c.12,0,.18.06.24.18.12.42.42,1.45,1,1.45,1.15,0,2-1.69,2.48-2.48a.38.38,0,0,1,.31-.18c.18,0,.48.24.48.42s0,.18-.06.25c-.61.84-1.94,2.48-3.09,2.54-1,0-1.45-1-1.7-1.82C37.05,30.44,37.18,30.32,37.36,30.32Z"/><path class="cls-3" d="M65,35.16l-.54.55c-1.88,1.94-5.45,5.57-7.82,5.57-2.72,0-1.51-4.18-3-4.18-1.15,0-4.66,3.7-5.93,5l-.24.24a.72.72,0,0,1-.67.43A.8.8,0,0,1,46,42c0-1,3.64-7.51,5.15-7.51.43,0,.73.18.73.48a1,1,0,0,1-.24.61A31.41,31.41,0,0,0,48.14,41c1.76-1.88,4.73-4.85,6.24-4.85,2.36,0,1,4.67,2.79,4.67s6.36-4.79,7.51-6A.39.39,0,0,1,65,35.16Z"/><path class="cls-3" d="M125.75,44.8a1.93,1.93,0,0,1,1.57-1.7c.37,0,.61.18.61.49a1.93,1.93,0,0,1-1.64,1.57C125.81,45.16,125.75,45,125.75,44.8Zm20.17-9.64c-2.36,2.55-7.39,7.33-11.15,7.33a2,2,0,0,1-2.24-2.18,8.28,8.28,0,0,1,.55-2.84c-1.58,1.45-3.52,2.9-4.49,2.9a1.07,1.07,0,0,1-1.21-1.09c0-1.93,2.73-4.9,4.61-4.9a2.61,2.61,0,0,1,2,1.15c.36-.49.6-1.09,1.39-1.09.3,0,.67.18.67.54,0,.55-2.43,4.06-2.43,6a1,1,0,0,0,1.15,1c3.46,0,8.61-4.79,10.85-7.21C145.86,34.8,145.92,35,145.92,35.16ZM132.53,35c-1,0-4.36,3.27-4.36,4.49a.32.32,0,0,0,.36.36c1,0,3.64-2.18,5.27-3.88C133.56,35.71,133,35,132.53,35Z"/><path class="cls-3" d="M160,35.16l-.55.55c-1.88,1.94-5.45,5.57-7.81,5.57-2.73,0-1.52-4.18-3-4.18-1.15,0-4.67,3.7-5.94,5l-.24.24a.71.71,0,0,1-.67.43A.81.81,0,0,1,141,42c0-1,3.64-7.51,5.15-7.51.43,0,.73.18.73.48a1,1,0,0,1-.24.61A32,32,0,0,0,143.07,41c1.76-1.88,4.73-4.85,6.24-4.85,2.37,0,1,4.67,2.79,4.67s6.36-4.79,7.51-6A.4.4,0,0,1,160,35.16Z"/><path class="cls-3" d="M209.11,34.32a.93.93,0,0,1-.85.91c-.48,0-1.33-1-3.33-1-7.57,0-27,7.81-36.05,7.87-6.3,0-4-5.15-5.69-5.15-2.49,0-8.06,6.06-9.45,8.12a.9.9,0,0,1-.79.48.75.75,0,0,1-.79-.66.45.45,0,0,1,.06-.24c4.3-8.06,30-39.14,39.8-39.14,1.82,0,2.61.73,2.61,1.94,0,7-24.9,22.29-33,26.59-2.42,3-4.48,5.76-6,8,2.36-2.6,5.57-5.69,8-5.69,3.46,0-.36,5.21,5.82,5.21,8.54,0,29.38-8.43,36.95-8.43a4.4,4.4,0,0,1,2.24.49A.92.92,0,0,1,209.11,34.32ZM162.46,33c7.63-4.18,31.68-19,31.68-25.62,0-.79-.36-1.39-1.51-1.39C186,6,167.37,27.11,162.46,33Z"/><path class="cls-3" d="M127,64.52c-7,0-11.34-4.66-11.34-11.64C115.63,35.73,139,17.6,139,11.15c0-1.36-.63-2.62-2.23-2.62a6.57,6.57,0,0,0-2.66.78C123,14.64,106.42,33.06,99.25,43.92c3.1-11.93,21-28.7,21-34.08a1.55,1.55,0,0,0-1.69-1.69c-5.29,0-20,12.79-23.66,16.28a223.07,223.07,0,0,0-24,27.68C73.32,39.55,99.2,20.24,100,6.84c0,0,0-.16,0-.22,0-.72-1-1.09-2.43-1.09-7.57,0-29.74,9.33-35.86,9.33a2.81,2.81,0,0,1-3.09-3c0-2.24,2.66-6,4.66-6,.55,0,.79.48.79,1s-.3.66-.3.9a.14.14,0,0,0,.12.13c.24,0,.67-.25.67-1a1.66,1.66,0,0,0-1.76-1.64c-2.91,0-5.58,3.33-5.58,6.24s2.12,4,4.55,4c7.39,0,26.33-8.51,34-8.92a14,14,0,0,1,2.81,0,6.19,6.19,0,0,1,1.09.37l0,0c-1.4,11.29-27.33,30.63-29.22,46a.26.26,0,0,0,.19.24c0-.05.05,0,.15-.1A229.48,229.48,0,0,1,95.22,24.67c3.3-3.2,18.33-16.14,23.32-16.14.29,0,.68.05.68.58-.2,6.74-17.89,21.82-20.55,35.78a.22.22,0,0,0,.19.24s0-.1.14-.1c6.79-10.71,23.85-29.95,35.24-35.38a6.27,6.27,0,0,1,2.52-.73c1.07,0,1.36.58,1.36,1.31-.19,6.93-23.17,24.19-23.17,42,0,7.32,4.61,12.61,12,12.61.15,0,.2-.1.2-.15A.18.18,0,0,0,127,64.52Z"/></g></g></svg>